# File created by Blade
# Date/Time:  Wed Jan 21 16:33:30 2015
# Frame Rate: 120.000 fps
#------------------------------------------------------
:FULLY-SPECIFIED
:DEGREES
1093
root 30.016655 4.910201 -26.000150 -120.246164 103.639777 -6.449069
Spine 39.711251 -1.668760 -10.193862
Head 48.079803 4.832195 -8.570099
LeftShoulder -7.179988 -9.611021 2.681130
LeftArm -7.723486 9.387157 -80.754141
LeftForeArm -10.907471 0.000000 35.848574
LeftHand -12.383828 -0.000000 5.125475
LeftHandThumb1 -26.253704 0.000000 33.147579
RightShoulder -9.661523 -19.895662 -5.364455
RightArm 32.702120 -29.705801 69.491552
RightForeArm -8.229187 0.000000 25.460666
RightHand -5.615908 -0.000000 6.957951
RightHandThumb1 -24.326973 -0.000000 -32.862282
LeftUpLeg -26.359660 5.476128 -0.258943
LeftLeg 153.476959 -0.000000 -0.000000
LeftFoot -33.244636 29.589598 -8.292965
LeftToeBase 21.824891 -0.000000 -0.000000
RightUpLeg -14.068038 13.486304 -1.319102
RightLeg 64.859566 -0.000000 -0.000000
RightFoot 25.670530 -23.765979 -1.751449
RightToeBase 16.797531 -0.000000 -0.000000
1094
root 30.055687 4.882321 -25.991593 -121.288512 103.804116 -7.644353
Spine 40.134678 -1.396500 -10.198286
Head 49.290905 4.547425 -8.883779
LeftShoulder -6.978890 -9.042513 2.258836
LeftArm -8.019395 8.546220 -80.503212
LeftForeArm -11.749682 -0.000000 37.288339
LeftHand -12.108251 -0.000000 5.748134
LeftHandThumb1 -26.253704 0.000000 33.147579
RightShoulder -8.744498 -18.701413 -5.934760
RightArm 30.263930 -26.722611 73.307339
RightForeArm -11.613934 -0.000000 23.472645
RightHand -4.563735 -0.000000 8.639583
RightHandThumb1 -24.326973 -0.000000 -32.862282
LeftUpLeg -26.446528 5.636348 -0.160951
LeftLeg 153.585648 -0.000000 -0.000000
LeftFoot -33.357386 29.295788 -8.284126
LeftToeBase 21.796119 -0.000000 -0.000000
RightUpLeg -12.611992 13.140201 -0.965951
RightLeg 61.350057 -0.000000 -0.000000
RightFoot 25.910750 -24.647818 -2.291272
RightToeBase 16.941075 -0.000000 -0.000000
1095
root 30.098117 4.873179 -25.978320 -122.246015 103.926982 -8.550223
Spine 40.764143 -1.057681 -10.158425
Head 50.471812 4.072912 -9.127649
LeftShoulder -6.668784 -8.905990 1.983292
LeftArm -8.702768 7.651938 -80.337055
LeftForeArm -12.794471 -0.000000 38.648575
LeftHand -11.773373 -0.000000 5.853114
LeftHandThumb1 -26.253704 0.000000 33.147579
RightShoulder -8.265946 -18.521298 -5.931007
RightArm 29.525796 -26.039368 73.744333
RightForeArm -10.826810 -0.000000 23.592809
RightHand -5.008089 -0.000000 8.589194
RightHandThumb1 -24.326973 -0.000000 -32.862282
LeftUpLeg -26.307692 5.791671 -0.052841
LeftLeg 153.655983 -0.000000 -0.000000
LeftFoot -33.462647 29.183420 -8.379489
LeftToeBase 21.860106 -0.000000 -0.000000
RightUpLeg -10.874420 12.774109 -0.568395
RightLeg 57.793651 -0.000000 -0.000000
RightFoot 25.947608 -25.790335 -2.256633
RightToeBase 17.013134 -0.000000 -0.000000
1096
root 30.139086 4.861503 -25.963716 -123.300224 104.014131 -9.580762
Spine 41.354850 -0.749309 -10.014540
Head 51.673859 3.665054 -9.483357
LeftShoulder -6.326276 -8.756420 1.598439
LeftArm -9.305178 6.902895 -80.039295
LeftForeArm -13.907807 -0.000000 39.986892
LeftHand -11.714307 -0.000000 5.813847
LeftHandThumb1 -26.253704 0.000000 33.147579
RightShoulder -7.768207 -18.637414 -5.852930
RightArm 29.053663 -25.840807 73.411170
RightForeArm -9.616525 0.000000 24.587139
RightHand -5.582474 -0.000000 8.285006
RightHandThumb1 -24.326973 -0.000000 -32.862282
LeftUpLeg -26.185958 5.941221 0.089339
LeftLeg 153.709662 -0.000000 -0.000000
LeftFoot -33.644685 29.139890 -8.602560
LeftToeBase 21.793523 -0.000000 -0.000000
RightUpLeg -9.130507 12.544860 -0.120415
RightLeg 54.217286 -0.000000 -0.000000
RightFoot 25.905741 -26.792392 -2.185957
RightToeBase 16.803910 -0.000000 -0.000000
1097
root 30.176793 4.831832 -25.940883 -123.432360 104.068715 -10.058085
Spine 41.518294 -0.523723 -9.883731
Head 53.177138 3.215969 -9.725972
LeftShoulder -6.067399 -8.477691 1.054152
LeftArm -9.605594 6.425709 -79.465971
LeftForeArm -15.133755 -0.000000 41.171847
LeftHand -11.861624 -0.000000 5.669994
LeftHandThumb1 -26.253704 0.000000 33.147579
RightShoulder -7.399243 -18.979257 -5.492945
RightArm 28.631772 -25.550975 72.929016
RightForeArm -9.596517 -0.000000 25.877585
RightHand -5.912013 0.000000 7.994814
RightHandThumb1 -24.326973 -0.000000 -32.862282
LeftUpLeg -26.487856 5.889146 0.191922
LeftLeg 153.774299 -0.000000 -0.000000
LeftFoot -33.792793 29.077056 -8.464753
LeftToeBase 21.981368 -0.000000 -0.000000
RightUpLeg -7.789512 12.258435 0.192133
RightLeg 50.659230 -0.000000 -0.000000
RightFoot 25.847787 -27.600911 -2.100699
RightToeBase 16.604102 -0.000000 -0.000000
1098
root 30.222056 4.796804 -25.917819 -123.399744 104.077185 -10.511713
Spine 41.514852 -0.326314 -9.709275
Head 54.730972 2.791594 -9.824537
LeftShoulder -5.814582 -8.260178 0.549325
LeftArm -9.959463 5.920514 -78.923764
LeftForeArm -15.754004 -0.000000 42.430911
LeftHand -12.055275 -0.000000 5.555108
LeftHandThumb1 -26.253704 0.000000 33.147579
RightShoulder -7.061734 -19.401204 -5.186738
RightArm 28.261814 -25.102295 72.660253
RightForeArm -10.479839 -0.000000 27.018366
RightHand -5.858705 -0.000000 7.973180
RightHandThumb1 -24.326973 -0.000000 -32.862282
LeftUpLeg -26.960132 5.793176 0.340165
LeftLeg 153.882165 -0.000000 -0.000000
LeftFoot -33.951776 28.886759 -8.326145
LeftToeBase 22.292579 -0.000000 -0.000000
RightUpLeg -6.623427 12.085197 0.494560
RightLeg 47.132987 -0.000000 -0.000000
RightFoot 25.962281 -28.269995 -2.081310
RightToeBase 18.217907 -0.000000 -0.000000
1099
root 30.270010 4.758804 -25.896174 -123.253322 104.059476 -10.904182
Spine 41.448221 -0.124494 -9.496186
Head 56.251431 2.263635 -9.936751
LeftShoulder -5.609597 -8.003483 0.046792
LeftArm -10.203057 5.531625 -78.369720
LeftForeArm -16.032744 0.000000 43.730665
LeftHand -12.169872 -0.000000 5.521061
LeftHandThumb1 -26.253704 0.000000 33.147579
RightShoulder -6.798974 -19.694265 -4.944743
RightArm 27.963448 -24.799472 72.462332
RightForeArm -11.304842 -0.000000 27.789956
RightHand -5.557726 -0.000000 8.093859
RightHandThumb1 -24.326973 -0.000000 -32.862282
LeftUpLeg -27.491366 5.701784 0.493616
LeftLeg 154.028233 -0.000000 -0.000000
LeftFoot -34.096881 28.806525 -8.070217
LeftToeBase 22.439155 -0.000000 -0.000000
RightUpLeg -5.555031 11.955900 0.794550
RightLeg 43.718623 -0.000000 -0.000000
RightFoot 26.112340 -28.815050 -1.952215
RightToeBase 18.214837 -0.000000 -0.000000
1100
root 30.323582 4.730298 -25.872462 -122.916731 104.016135 -10.958910
Spine 41.532860 0.039095 -9.302707
Head 57.633028 1.725420 -9.976201
LeftShoulder -5.449139 -7.736527 -0.302581
LeftArm -10.366094 5.185181 -77.928779
LeftForeArm -15.986886 -0.000000 45.047110
LeftHand -12.236121 0.000000 5.375443
LeftHandThumb1 -26.253704 0.000000 33.147579
RightShoulder -6.576329 -19.896561 -4.795999
RightArm 27.695063 -24.503281 72.431120
RightForeArm -12.213164 -0.000000 28.364410
RightHand -5.145150 -0.000000 8.383521
RightHandThumb1 -24.326973 -0.000000 -32.862282
LeftUpLeg -27.907564 5.595785 0.642945
LeftLeg 154.204842 -0.000000 -0.000000
LeftFoot -34.207508 28.779062 -7.902696
LeftToeBase 22.614241 -0.000000 -0.000000
RightUpLeg -4.368053 11.821501 1.101689
RightLeg 40.434537 -0.000000 -0.000000
RightFoot 26.163926 -29.075583 -2.114563
RightToeBase 18.699767 -0.000000 -0.000000
1101
root 30.381032 4.700343 -25.847361 -122.259531 103.998493 -10.761720
Spine 41.518702 0.320947 -9.071266
Head 59.026937 0.976779 -9.937588
LeftShoulder -5.177885 -7.422878 -0.613550
LeftArm -10.446629 4.942990 -77.501365
LeftForeArm -15.734250 -0.000000 46.430195
LeftHand -12.359474 -0.000000 5.361234
LeftHandThumb1 -26.253704 0.000000 33.147579
RightShoulder -6.560334 -20.060651 -4.491138
RightArm 27.373738 -24.258338 72.341655
RightForeArm -12.789414 -0.000000 29.054526
RightHand -4.856000 0.000000 8.709444
RightHandThumb1 -24.326973 -0.000000 -32.862282
LeftUpLeg -28.409926 5.443050 0.754587
LeftLeg 154.371642 -0.000000 -0.000000
LeftFoot -34.355524 28.749853 -7.701415
LeftToeBase 22.817578 -0.000000 -0.000000
RightUpLeg -3.308102 11.805642 1.338858
RightLeg 37.312643 -0.000000 -0.000000
RightFoot 26.210545 -29.025034 -2.332781
RightToeBase 18.906165 -0.000000 -0.000000
1102
root 30.448226 4.684589 -25.813661 -121.429878 103.925252 -10.225362
Spine 41.675121 0.531413 -8.837707
Head 60.173967 0.233391 -9.825028
LeftShoulder -4.960296 -7.127594 -0.719255
LeftArm -10.452261 4.903547 -77.225638
LeftForeArm -15.599141 -0.000000 47.705662
LeftHand -12.386596 -0.000000 5.443090
LeftHandThumb1 -26.253704 0.000000 33.147579
RightShoulder -6.527669 -20.210926 -4.231743
RightArm 27.005783 -24.225779 72.161529
RightForeArm -12.790375 -0.000000 30.018921
RightHand -4.730756 -0.000000 8.820303
RightHandThumb1 -24.326973 -0.000000 -32.862282
LeftUpLeg -28.764271 5.200160 0.948446
LeftLeg 154.556467 -0.000000 -0.000000
LeftFoot -34.499783 28.664347 -7.639301
LeftToeBase 22.894156 -0.000000 -0.000000
RightUpLeg -2.107950 11.830591 1.654627
RightLeg 34.374623 -0.000000 -0.000000
RightFoot 26.134965 -28.889450 -2.647417
RightToeBase 19.059445 -0.000000 -0.000000
1103
root 30.516823 4.679677 -25.791697 -120.661053 103.945270 -9.617906
Spine 41.988822 0.831682 -8.635820
Head 61.117118 -0.603601 -9.753823
LeftShoulder -4.778870 -6.913496 -0.659050
LeftArm -10.262446 5.040910 -77.114825
LeftForeArm -15.763981 -0.000000 48.580710
LeftHand -12.415068 -0.000000 5.589797
LeftHandThumb1 -26.253704 0.000000 33.147579
RightShoulder -6.494500 -20.199648 -4.059816
RightArm 26.366937 -24.287910 72.097569
RightForeArm -12.326895 -0.000000 31.220439
RightHand -4.747721 -0.000000 8.767462
RightHandThumb1 -24.326973 -0.000000 -32.862282
LeftUpLeg -28.981071 5.040986 1.028079
LeftLeg 154.716735 -0.000000 -0.000000
LeftFoot -34.583947 28.554618 -7.666976
LeftToeBase 23.044052 -0.000000 -0.000000
RightUpLeg -0.818854 12.113891 1.875259
RightLeg 31.682841 -0.000000 -0.000000
RightFoot 25.469206 -28.560417 -2.185544
RightToeBase 18.939478 -0.000000 -0.000000
